<?xml version="1.0" encoding="utf-8"?><!-- Generator: Adobe Illustrator 24.0.3, SVG Export Plug-In . SVG Version: 6.00 Build 0)  --><svg version="1.1" id="Layer_1" xmlns="http://www.w3.org/2000/svg" xmlns:xlink="http://www.w3.org/1999/xlink" x="0px" y="0px" viewBox="0 0 16 16" style="enable-background:new 0 0 16 16;" xml:space="preserve"><style type="text/css">.st0{fill-rule:evenodd;clip-rule:evenodd;fill:#1700F4;}</style><title>3931F7FA-84D1-4A97-ADC7-C9C73E8E02D5</title><g id="Navigation"><g id="Navigation_x2F_POI_x2F_Generic_x2F_16"><path id="POIGeneric" class="st0" d="M8,1c2.8,0,5,2.2,5,4.8c0,1-0.4,1.9-0.7,2.4c-0.2,0.3-3.8,5.9-3.8,5.9l0,0h0.9c0.5,0,0.9,0.4,0.9,0.9l0,0H5.7c0-0.5,0.4-0.9,0.9-0.9l0,0h0.9c0,0-3.7-5.6-3.8-5.9C3.4,7.8,3,6.8,3,5.8C3,3.2,5.2,1,8,1z M8,3.6c1.3,0,2.3,1,2.3,2.2S9.3,8,8,8S5.7,7,5.7,5.8S6.7,3.6,8,3.6z"/></g></g></svg>